<?xml version="1.0" standalone="no"?>
<!DOCTYPE svg PUBLIC "-//W3C//DTD SVG 20010904//EN"
 "http://www.w3.org/TR/2001/REC-SVG-20010904/DTD/svg10.dtd">
<svg version="1.0" xmlns="http://www.w3.org/2000/svg"
 width="225.000000pt" height="225.000000pt" viewBox="0 0 225.000000 225.000000"
 preserveAspectRatio="xMidYMid meet">
<metadata>
Created by potrace 1.14, written by Peter Selinger 2001-2017
</metadata>
<g transform="translate(0.000000,225.000000) scale(0.100000,-0.100000)"
fill="#000000" stroke="none">
<path d="M870 1750 c-11 -11 -20 -28 -20 -37 0 -14 3 -14 15 4 15 22 20 22
257 22 233 0 242 -1 260 -21 15 -18 18 -18 18 -5 0 10 -9 26 -20 37 -19 19
-33 20 -255 20 -222 0 -236 -1 -255 -20z"/>
<path d="M945 1675 c-24 -23 -25 -30 -25 -142 l0 -118 -113 3 c-103 3 -115 1
-140 -18 l-27 -21 0 -162 c1 -115 4 -167 13 -179 11 -13 13 13 12 144 0 145 2
161 18 170 13 6 23 5 35 -4 13 -11 14 -11 8 1 -7 10 -4 12 12 7 11 -4 23 -2
27 4 5 8 11 8 21 -1 10 -8 14 -8 14 0 0 7 22 11 59 11 65 0 72 5 73 51 1 17 6
28 12 26 13 -5 16 165 3 174 -17 12 54 29 74 18 13 -6 19 -6 19 1 0 15 163 13
178 -2 10 -10 15 -10 22 2 8 13 13 13 37 0 l28 -16 0 -119 c0 -137 -3 -133 88
-134 36 -1 56 -5 52 -11 -9 -14 8 -13 23 2 9 9 16 7 32 -7 11 -10 20 -14 20
-8 0 5 12 10 27 9 24 -1 28 -6 35 -46 5 -25 7 -98 6 -163 -3 -110 2 -138 16
-101 3 9 6 85 6 170 0 152 0 155 -25 180 -25 24 -29 25 -140 22 l-115 -3 0
122 c0 119 0 122 -26 142 -24 19 -40 21 -181 21 -150 0 -155 -1 -178 -25z"/>
<path d="M1043 1623 c-42 -8 -53 -39 -53 -149 0 -56 -2 -109 -5 -116 -4 -11
-21 -13 -65 -10 -88 6 -168 -6 -192 -30 -18 -18 -19 -30 -16 -115 4 -129 9
-133 164 -133 l113 0 -1 -108 c0 -82 3 -115 16 -140 l17 -32 90 0 c68 0 98 4
120 17 l29 17 0 122 0 122 125 3 c155 5 154 4 155 141 0 95 -1 97 -27 115 -23
15 -49 18 -140 18 l-113 0 0 118 c0 112 -1 119 -25 142 -21 22 -32 25 -97 24
-40 -1 -83 -4 -95 -6z"/>
<path d="M592 1474 c-12 -8 -22 -25 -21 -37 l0 -22 16 23 c15 21 22 22 133 22
96 0 119 3 124 15 8 22 -220 22 -252 -1z"/>
<path d="M1406 1476 c4 -11 34 -15 124 -17 105 -4 121 -6 134 -24 15 -20 15
-20 16 2 0 42 -34 53 -162 53 -96 0 -116 -2 -112 -14z"/>
<path d="M1545 1320 c3 -5 8 -10 11 -10 2 0 4 5 4 10 0 6 -5 10 -11 10 -5 0
-7 -4 -4 -10z"/>
<path d="M720 1070 c0 -5 5 -10 11 -10 5 0 7 5 4 10 -3 6 -8 10 -11 10 -2 0
-4 -4 -4 -10z"/>
<path d="M921 899 c-1 -101 2 -129 14 -139 13 -11 14 -8 8 20 -3 19 -2 31 3
27 12 -7 1 161 -14 193 -9 20 -11 1 -11 -101z"/>
<path d="M1305 870 c0 -94 3 -116 13 -108 8 7 12 44 11 122 0 61 -3 105 -6 97
-3 -8 -8 -9 -12 -3 -3 5 -6 -43 -6 -108z"/>
<path d="M805 502 c-3 -3 -5 -34 -5 -69 0 -49 3 -63 15 -63 9 0 15 9 15 25 0
15 6 25 15 25 16 0 30 42 22 64 -5 14 -52 27 -62 18z m45 -36 c0 -8 -4 -18
-10 -21 -5 -3 -10 3 -10 14 0 12 5 21 10 21 6 0 10 -6 10 -14z"/>
<path d="M888 504 c-12 -11 -10 -134 2 -134 6 0 10 14 10 30 0 17 5 30 10 30
6 0 10 -13 10 -30 0 -20 5 -30 15 -30 12 0 15 14 15 65 0 51 -3 65 -15 65 -9
0 -15 -9 -15 -25 0 -36 -18 -31 -22 6 -2 17 -6 27 -10 23z"/>
<path d="M971 459 c-14 -62 -14 -89 -1 -89 6 0 10 5 10 10 0 6 7 10 15 10 8 0
15 -4 15 -10 0 -5 5 -10 11 -10 11 0 9 19 -7 102 -10 48 -32 42 -43 -13z m25
-47 c-11 -10 -15 4 -8 28 l7 25 3 -23 c2 -13 1 -26 -2 -30z"/>
<path d="M1133 503 c-9 -3 -13 -26 -13 -69 0 -66 16 -88 23 -31 l4 32 1 -32
c1 -21 7 -33 16 -33 9 0 16 13 19 33 l4 32 1 -32 c1 -18 7 -33 12 -33 6 0 10
30 10 70 0 39 -2 70 -4 70 -15 0 -36 -36 -37 -63 -1 -29 -2 -27 -12 14 -8 29
-17 44 -24 42z"/>
<path d="M1312 498 c-13 -13 -16 -85 -6 -112 8 -21 50 -21 58 0 9 25 7 34 -9
34 -9 0 -12 -6 -8 -16 4 -12 2 -15 -8 -12 -17 6 -25 76 -10 91 8 8 11 6 11 -6
0 -9 7 -17 15 -17 19 0 19 14 -1 34 -19 19 -26 20 -42 4z"/>
<path d="M1378 505 c-7 -7 25 -135 33 -135 4 0 9 19 12 43 3 23 9 52 13 65 4
13 2 22 -5 22 -6 0 -11 -9 -11 -19 0 -11 -4 -23 -10 -26 -6 -3 -10 5 -10 19 0
24 -12 41 -22 31z"/>
<path d="M1040 435 c0 -37 4 -65 10 -65 6 0 10 11 10 25 0 14 5 25 10 25 6 0
10 -11 10 -25 0 -14 6 -25 14 -25 13 0 13 7 7 118 -1 7 -14 12 -31 12 l-30 0
0 -65z m40 25 c0 -11 -4 -20 -10 -20 -5 0 -10 9 -10 20 0 11 5 20 10 20 6 0
10 -9 10 -20z"/>
<path d="M1236 473 c-16 -83 -18 -103 -7 -103 6 0 11 5 11 10 0 14 28 12 33
-2 11 -32 18 7 11 59 -7 41 -14 59 -26 61 -11 2 -18 -6 -22 -25z m21 -50 c-3
-10 -5 -4 -5 12 0 17 2 24 5 18 2 -7 2 -21 0 -30z"/>
</g>
</svg>
